<?xml version="1.0" encoding="utf-8"?>
<!-- Generator: Adobe Illustrator 27.5.0, SVG Export Plug-In . SVG Version: 6.00 Build 0)  -->
<svg version="1.1" xmlns="http://www.w3.org/2000/svg" xmlns:xlink="http://www.w3.org/1999/xlink" x="0px" y="0px"
	 viewBox="0 0 500 500" style="enable-background:new 0 0 500 500;" xml:space="preserve">
<g id="Floor">
	<ellipse id="Floor_3_" style="fill:#F5F5F5;" cx="257.173" cy="310.54" rx="223.223" ry="119.249"/>
</g>
<g id="Shadow_3_">
	<polygon id="Shadow_10_" style="fill:#E0E0E0;" points="167.336,376.921 96.171,335.539 216.553,265.966 	"/>
	<path id="Shadow_9_" style="fill:#E0E0E0;" d="M64.607,333.031l28.962,16.721c1.075,0.62,2.817,0.62,3.891,0l40.014-23.34
		c1.075-0.62,1.075-1.626,0-2.246l-28.962-16.721c-1.075-0.62-2.817-0.62-3.891,0l-40.014,23.34
		C63.533,331.405,63.533,332.411,64.607,333.031z"/>
</g>
<g id="Plants">
	<g id="Plants_4_">
		<g id="XMLID_14912_">
			<g id="XMLID_14914_">
				<path id="XMLID_14926_" style="fill:#27DEBF;" d="M67.748,330.404c-2.011-3.222-8.168-6.761-16.269-8.511
					c-8.101-1.749-16.236-3.925-14.374-8.624c2.009-5.07,9.537-5.318,16.903-2.3c8.049,3.297,14,11.465,14.115,16.599
					L67.748,330.404z"/>
			</g>
			<g id="XMLID_14915_" style="opacity:0.1;">
				<path id="XMLID_14916_" d="M67.748,330.404c-2.011-3.222-8.168-6.761-16.269-8.511c-8.101-1.749-16.236-3.925-14.374-8.624
					c2.009-5.07,9.537-5.318,16.903-2.3c8.049,3.297,14,11.465,14.115,16.599L67.748,330.404z"/>
			</g>
			<g id="XMLID_14913_">
				<path id="XMLID_14924_" style="fill:#FFFFFF;" d="M68.382,328.936c-0.225,0-0.441-0.125-0.545-0.341
					c-6.432-13.308-21.338-15.452-26.04-14.728c-0.326,0.053-0.639-0.175-0.69-0.505c-0.051-0.33,0.175-0.639,0.506-0.69
					c4.934-0.765,20.584,1.473,27.314,15.397c0.145,0.301,0.019,0.663-0.281,0.808C68.56,328.917,68.47,328.936,68.382,328.936z"/>
			</g>
		</g>
		<g id="XMLID_14909_">
			<g id="XMLID_14911_">
				<path id="XMLID_14921_" style="fill:#27DEBF;" d="M67.748,330.404c0,0-3.872-15.335-13.676-23.578
					c-2.913-2.449-6.019-5.511-8.191-7.628c-4.66-4.543-2.716-9.484,3.741-9.393c9.593,0.135,16.615,8.214,19.654,18.786
					C72.315,319.164,67.748,330.404,67.748,330.404z"/>
			</g>
			<g id="XMLID_14910_">
				<path id="XMLID_14919_" style="fill:#FFFFFF;" d="M69.277,324.452c-0.309,0-0.572-0.235-0.602-0.549
					c-1.807-19.499-16.683-29.303-20.731-30.339c-0.324-0.083-0.519-0.412-0.436-0.736c0.083-0.324,0.413-0.521,0.736-0.436
					c4.916,1.258,19.785,11.432,21.636,31.399c0.031,0.332-0.214,0.627-0.547,0.658C69.314,324.451,69.295,324.452,69.277,324.452z"
					/>
			</g>
		</g>
	</g>
</g>
<g id="Cabinet_2_">
	<g id="Cabinet">
		<g id="XMLID_14789_">
			<g id="XMLID_14806_">
				<polygon id="XMLID_14807_" style="fill:#263238;" points="94.593,347.262 67.265,331.484 67.264,272.879 94.593,288.657 				"/>
			</g>
			<g id="XMLID_14804_">
				<polygon id="XMLID_14805_" style="fill:#37474F;" points="94.593,288.657 133.634,266.117 133.635,324.722 94.593,347.262 				
					"/>
			</g>
			<g id="XMLID_14802_">
				<polygon id="XMLID_14803_" style="fill:#455A64;" points="133.634,266.117 94.593,288.657 67.264,272.879 106.305,250.338 				
					"/>
			</g>
			<g id="XMLID_14797_">
				<g id="XMLID_14798_">
					<path id="XMLID_14799_" style="fill:#263238;" d="M111.458,287.936l5.311-3.067c0.689-0.398,1.248-0.216,1.248,0.406
						c0,0.622-0.559,1.45-1.248,1.848l-5.312,3.067c-0.69,0.398-1.248,0.216-1.248-0.406
						C110.21,289.162,110.769,288.334,111.458,287.936z"/>
				</g>
			</g>
			<g id="XMLID_14790_">
				<g id="XMLID_14795_">
					<polygon id="XMLID_14796_" style="fill:#263238;" points="97.779,318.378 129.012,300.346 129.73,300.761 129.011,322.053 
						129.729,322.468 98.496,340.5 97.778,340.085 					"/>
				</g>
				<g id="XMLID_14793_">
					<polygon id="XMLID_14794_" style="fill:#455A64;" points="98.497,318.793 129.73,300.761 129.729,322.468 98.496,340.5 					
						"/>
				</g>
				<g id="XMLID_14791_">
					<path id="XMLID_14792_" style="fill:#263238;" d="M110.74,315.404l5.311-3.067c0.689-0.398,1.248-0.216,1.248,0.406
						c0,0.623-0.559,1.45-1.249,1.848l-5.312,3.067c-0.689,0.398-1.248,0.216-1.248-0.406
						C109.491,316.629,110.05,315.802,110.74,315.404z"/>
				</g>
			</g>
			<g id="XMLID_14759_">
				<g id="XMLID_14764_">
					<polygon id="XMLID_14765_" style="fill:#263238;" points="97.779,291.378 129.012,273.345 129.73,273.761 129.011,295.053 
						129.729,295.468 98.496,313.5 97.778,313.085 					"/>
				</g>
				<g id="XMLID_14762_">
					<polygon id="XMLID_14763_" style="fill:#455A64;" points="98.497,291.793 129.73,273.761 129.729,295.468 98.496,313.5 					
						"/>
				</g>
				<g id="XMLID_14760_">
					<path id="XMLID_14761_" style="fill:#263238;" d="M110.74,288.403l5.311-3.067c0.689-0.398,1.248-0.216,1.248,0.406
						c0,0.622-0.559,1.45-1.249,1.848l-5.312,3.066c-0.689,0.398-1.248,0.216-1.248-0.406
						C109.491,289.629,110.05,288.801,110.74,288.403z"/>
				</g>
			</g>
		</g>
	</g>
	<g id="Cabinet_1_">
		<g id="XMLID_14833_">
			<g id="XMLID_14850_">
				<polygon id="XMLID_14851_" style="fill:#263238;" points="94.593,286.165 67.265,270.387 67.264,211.781 94.593,227.56 				"/>
			</g>
			<g id="XMLID_14848_">
				<polygon id="XMLID_14849_" style="fill:#37474F;" points="94.593,227.56 133.634,205.02 133.635,263.625 94.593,286.165 				"/>
			</g>
			<g id="XMLID_14846_">
				<polygon id="XMLID_14847_" style="fill:#455A64;" points="133.634,205.02 94.593,227.56 67.264,211.781 106.305,189.241 				"/>
			</g>
			<g id="XMLID_14841_">
				<g id="XMLID_14844_">
					<polygon id="XMLID_14845_" style="fill:#263238;" points="98.498,229.814 129.731,211.781 130.449,212.196 130.448,233.904 
						99.215,251.936 98.497,251.52 					"/>
				</g>
				<g id="XMLID_14842_">
					<path id="XMLID_14843_" style="fill:#263238;" d="M111.458,226.839l5.311-3.067c0.689-0.398,1.248-0.216,1.248,0.406
						s-0.559,1.45-1.248,1.848l-5.312,3.067c-0.69,0.398-1.248,0.216-1.248-0.406C110.21,228.065,110.769,227.237,111.458,226.839z"
						/>
				</g>
			</g>
			<g id="XMLID_14834_">
				<g id="XMLID_14839_">
					<polygon id="XMLID_14840_" style="fill:#263238;" points="97.779,257.281 129.012,239.249 129.011,260.956 129.729,261.371 
						98.496,279.403 97.778,278.988 					"/>
				</g>
				<g id="XMLID_14837_">
					<polygon id="XMLID_14838_" style="fill:#455A64;" points="98.497,257.696 129.73,239.664 129.729,261.371 98.496,279.403 					
						"/>
				</g>
				<g id="XMLID_14835_">
					<path id="XMLID_14836_" style="fill:#263238;" d="M110.74,254.307l5.311-3.067c0.689-0.398,1.248-0.216,1.248,0.406
						c0,0.623-0.559,1.45-1.249,1.848l-5.312,3.066c-0.689,0.398-1.248,0.216-1.248-0.406
						C109.491,255.532,110.05,254.705,110.74,254.307z"/>
				</g>
			</g>
		</g>
		<g id="XMLID_14811_">
			<g id="XMLID_14831_">
				<polygon id="XMLID_14832_" style="fill:#263238;" points="98.497,229.813 129.73,211.781 129.729,233.488 98.496,251.52 				"/>
			</g>
			<g id="XMLID_14829_">
				<polygon id="XMLID_14830_" style="fill:#263238;" points="145.347,222.505 128.251,212.637 128.25,231.761 145.346,241.629 				
					"/>
			</g>
			<g id="XMLID_14822_">
				<g id="XMLID_14827_">
					<polygon id="XMLID_14828_" style="fill:#27DEBF;" points="110.21,254.608 110.21,227.559 116.912,223.677 118.018,225.305 
						137.538,214.035 137.539,238.829 					"/>
				</g>
				<g id="XMLID_14825_" style="opacity:0.2;">
					<polygon id="XMLID_14826_" points="110.21,254.608 110.21,227.559 116.912,223.677 118.018,225.305 137.538,214.035 
						137.539,238.829 					"/>
				</g>
				<g id="XMLID_14823_">
					<polygon id="XMLID_14824_" style="fill:#27DEBF;" points="110.21,254.608 112.161,230.94 139.49,215.162 137.539,238.829 					
						"/>
				</g>
			</g>
			<g id="XMLID_14820_">
				<polygon id="XMLID_14821_" style="fill:#37474F;" points="114.114,240.538 99.214,231.935 99.213,251.059 114.113,259.661 				
					"/>
			</g>
			<g id="XMLID_14818_">
				<polygon id="XMLID_14819_" style="fill:#455A64;" points="114.114,238.829 145.347,220.797 145.346,242.504 114.113,260.536 
									"/>
			</g>
			<g id="XMLID_14816_">
				<path id="XMLID_14817_" style="fill:#263238;" d="M126.356,235.44l5.311-3.067c0.689-0.398,1.248-0.216,1.248,0.406
					c0,0.623-0.559,1.45-1.249,1.848l-5.312,3.066c-0.69,0.398-1.248,0.216-1.248-0.406
					C125.107,236.665,125.667,235.838,126.356,235.44z"/>
			</g>
			<g id="XMLID_14814_">
				<polygon id="XMLID_14815_" style="fill:#263238;" points="114.114,238.829 113.073,238.229 113.073,259.935 114.114,260.536 
									"/>
			</g>
			<g id="XMLID_14812_">
				<polygon id="XMLID_14813_" style="fill:#37474F;" points="113.073,238.229 144.306,220.196 145.347,220.797 114.114,238.829 
									"/>
			</g>
		</g>
	</g>
</g>
<g id="Window_1_">
	<g id="Window">
		<path id="XMLID_14380_" style="fill:#E6E6E6;" d="M374.97,82.301l-4.06-2.362L163.746,199.545v173.222
			c0,1.378,0.483,2.346,1.263,2.8l0,0l0.005,0.003l0,0l4.059,2.361v0c0.784,0.453,1.867,0.388,3.063-0.303l198.505-114.607
			c2.391-1.381,4.33-4.739,4.33-7.5L374.97,82.301z"/>
		<g id="XMLID_14399_">
			<path style="fill:#FAFAFA;" d="M170.203,377.721c-1.188,0-1.896-0.969-1.896-2.591V202.196L374.47,83.167l0.001,172.355
				c0,2.598-1.83,5.768-4.08,7.067L171.886,377.196C171.292,377.54,170.71,377.721,170.203,377.721L170.203,377.721z"/>
			<path style="fill:#E0E0E0;" d="M373.97,84.033l0.001,171.489c0,2.397-1.754,5.435-3.83,6.634L171.637,376.763
				c-0.518,0.299-1.014,0.457-1.434,0.457c-1.26,0-1.396-1.463-1.396-2.091V202.484L373.97,84.033 M374.97,82.301L167.806,201.907
				v173.222c0,1.959,0.976,3.091,2.396,3.091c0.582,0,1.239-0.19,1.934-0.591l198.505-114.607c2.391-1.381,4.33-4.739,4.33-7.5
				L374.97,82.301L374.97,82.301z"/>
		</g>
		<g id="XMLID_14385_">
			<polygon id="XMLID_14398_" style="fill:#27DEBF;" points="167.806,201.907 167.806,220.656 374.969,101.05 374.97,82.301 			"/>
			<path id="XMLID_14397_" style="fill:#FAFAFA;" d="M297.792,134.212l0.001,4.036c0,0.825,0.585,1.162,1.299,0.75l63.693-36.773
				l-0.001-7.036l-63.693,36.773C298.377,132.374,297.792,133.387,297.792,134.212z"/>
			<path id="XMLID_14396_" style="fill:#455A64;" d="M369.61,91.248c0.717-0.414,1.299-0.078,1.299,0.75v4.036
				c0,0.828-0.582,1.836-1.299,2.25l-6.825,3.941l-0.001-7.036L369.61,91.248z"/>
			<path id="XMLID_14550_" style="fill:#FAFAFA;" d="M369.105,96.782l-0.762-0.237c0.078-0.323,0.122-0.655,0.122-0.981
				c0-0.779-0.253-1.371-0.694-1.626c-0.328-0.189-0.722-0.17-1.11,0.054c-0.853,0.493-1.521,1.883-1.521,3.166
				c0,0.779,0.253,1.371,0.694,1.626c0.15,0.086,0.313,0.129,0.483,0.129c0.203,0,0.416-0.061,0.627-0.183
				c0.513-0.296,0.956-0.919,1.23-1.646l0.763,0.238c0.028,0.009,0.056,0.013,0.084,0.013c0.121,0,0.232-0.077,0.27-0.199
				C369.337,96.986,369.254,96.828,369.105,96.782z M366.662,98.241c-0.211,0.122-0.394,0.141-0.545,0.053
				c-0.254-0.147-0.412-0.582-0.412-1.137c0-1.063,0.567-2.289,1.239-2.677c0.124-0.071,0.238-0.108,0.342-0.108
				c0.073,0,0.141,0.018,0.203,0.054c0.254,0.147,0.411,0.582,0.411,1.137C367.901,96.627,367.334,97.853,366.662,98.241z"/>
			<path id="XMLID_14388_" style="fill:#263238;" d="M369.682,68.093c-0.785-0.482-1.884-0.429-3.103,0.275L168.076,182.973
				c-2.391,1.381-4.33,4.739-4.33,7.5v9.071l4.06,2.362L374.97,82.301v-9.071c0-1.372-0.479-2.337-1.254-2.791
				C372.987,70.012,370.386,68.525,369.682,68.093z"/>
			<path id="XMLID_14395_" style="fill:#37474F;" d="M167.806,192.836c0-2.761,1.939-6.119,4.33-7.5L370.64,70.729
				c2.392-1.381,4.33-0.261,4.33,2.5v9.071L167.806,201.907V192.836z"/>
			<path id="XMLID_14423_" style="fill:#455A64;" d="M373.759,70.463c-0.79-0.49-1.89-0.44-3.12,0.27l-198.5,114.6
				c-1.2,0.69-2.28,1.88-3.06,3.23l-4.07-2.35c0.79-1.36,1.87-2.55,3.07-3.24l198.5-114.61c1.22-0.7,2.32-0.75,3.1-0.27
				c0.71,0.43,3.31,1.92,4.04,2.34C373.729,70.443,373.749,70.453,373.759,70.463z"/>
			<g id="XMLID_14391_">
				<g id="XMLID_14393_">
					<path id="XMLID_4_" style="fill:#27DEBF;" d="M350.599,86.979c-1.122,0.648-2.031,2.223-2.031,3.518s0.909,1.821,2.031,1.173
						c1.122-0.648,2.031-2.223,2.031-3.518C352.63,86.856,351.721,86.331,350.599,86.979z"/>
					<path style="fill:#27DEBF;" d="M357.707,82.885c-1.122,0.648-2.031,2.223-2.031,3.518c0,1.295,0.909,1.821,2.031,1.173
						s2.031-2.223,2.031-3.518C359.738,82.763,358.829,82.238,357.707,82.885z"/>
					<path id="XMLID_1_" style="fill:#27DEBF;" d="M364.815,78.792c-1.122,0.648-2.031,2.223-2.031,3.518
						c0,1.295,0.909,1.821,2.031,1.173c1.122-0.648,2.031-2.223,2.031-3.518S365.936,78.144,364.815,78.792z"/>
				</g>
			</g>
		</g>
		<g id="XMLID_14386_">
			<path style="fill:#F5F5F5;" d="M170.203,377.721c-1.188,0-1.896-0.969-1.896-2.591V220.944l39.623-22.876v158.318l-36.043,20.81
				C171.292,377.539,170.71,377.721,170.203,377.721L170.203,377.721z"/>
			<path style="fill:#E0E0E0;" d="M207.429,198.934v157.164l-35.793,20.665c-0.518,0.299-1.014,0.457-1.434,0.457
				c-1.26,0-1.396-1.463-1.396-2.091V221.233L207.429,198.934 M208.429,197.202l-40.623,23.454v154.474
				c0,1.959,0.976,3.091,2.396,3.091c0.582,0,1.239-0.19,1.934-0.591l36.293-20.954V197.202L208.429,197.202z"/>
		</g>
		<g id="XMLID_14452_">
			<g id="XMLID_14340_">
				<g id="XMLID_14447_">
					<path id="XMLID_14382_" style="fill:#E0E0E0;" d="M181.293,222.252l19.433-11.233c0.717-0.415,1.298-0.079,1.298,0.749l0,1.69
						c0,0.829-0.582,1.836-1.299,2.251l-19.434,11.233c-0.717,0.415-1.299,0.079-1.298-0.749l0.001-1.69
						C179.994,223.674,180.576,222.666,181.293,222.252z"/>
					<path id="XMLID_14383_" style="fill:#27DEBF;" d="M175.932,226.847v1.691c0,0.828-0.581,1.836-1.299,2.25l-1.464,0.845
						c-0.717,0.414-1.299,0.078-1.299-0.75l0-1.691c0-0.829,0.581-1.836,1.299-2.25l1.464-0.845
						C175.35,225.683,175.932,226.019,175.932,226.847z"/>
				</g>
				<g id="XMLID_14449_">
					<path id="XMLID_14389_" style="fill:#E0E0E0;" d="M181.293,231.598l19.433-11.233c0.717-0.415,1.298-0.079,1.298,0.749l0,1.691
						c0,0.828-0.582,1.836-1.299,2.251l-19.434,11.233c-0.717,0.415-1.299,0.079-1.298-0.749l0.001-1.69
						C179.994,233.02,180.576,232.012,181.293,231.598z"/>
					<path id="XMLID_14387_" style="fill:#27DEBF;" d="M175.932,236.193v1.691c0,0.828-0.581,1.836-1.299,2.25l-1.464,0.845
						c-0.717,0.414-1.299,0.078-1.299-0.75l0-1.691c0-0.828,0.581-1.836,1.299-2.25l1.464-0.845
						C175.35,235.029,175.932,235.365,175.932,236.193z"/>
				</g>
				<g id="XMLID_14451_">
					<path id="XMLID_14416_" style="fill:#E0E0E0;" d="M181.293,240.944l19.433-11.233c0.717-0.414,1.298-0.079,1.298,0.749l0,1.69
						c0,0.829-0.582,1.836-1.299,2.251l-19.434,11.233c-0.717,0.415-1.299,0.079-1.298-0.749l0.001-1.691
						C179.994,242.366,180.576,241.359,181.293,240.944z"/>
					<path id="XMLID_14390_" style="fill:#27DEBF;" d="M175.932,245.54v1.691c0,0.828-0.581,1.836-1.299,2.25l-1.464,0.845
						c-0.717,0.414-1.299,0.079-1.299-0.75l0-1.691c0-0.828,0.581-1.836,1.299-2.25l1.464-0.845
						C175.35,244.375,175.932,244.711,175.932,245.54z"/>
				</g>
			</g>
			<g id="XMLID_14445_">
				<g id="XMLID_14440_">
					<path id="XMLID_14501_" style="fill:#E0E0E0;" d="M181.293,271.936l19.433-11.233c0.717-0.414,1.298-0.079,1.298,0.749l0,1.69
						c0,0.828-0.582,1.836-1.299,2.251l-19.434,11.233c-0.717,0.415-1.299,0.079-1.298-0.749l0.001-1.691
						C179.994,273.358,180.576,272.35,181.293,271.936z"/>
					<path id="XMLID_14492_" style="fill:#27DEBF;" d="M175.932,276.531v1.691c0,0.828-0.581,1.836-1.299,2.25l-1.464,0.845
						c-0.717,0.414-1.299,0.078-1.299-0.75l0-1.691c0-0.828,0.581-1.836,1.299-2.25l1.464-0.845
						C175.35,275.367,175.932,275.703,175.932,276.531z"/>
				</g>
				<g id="XMLID_14442_">
					<path id="XMLID_14513_" style="fill:#E0E0E0;" d="M181.293,280.214l19.433-11.233c0.717-0.415,1.298-0.079,1.298,0.749l0,1.69
						c0,0.828-0.582,1.836-1.299,2.251l-19.434,11.233c-0.717,0.414-1.299,0.079-1.298-0.749l0.001-1.69
						C179.994,281.636,180.576,280.628,181.293,280.214z"/>
					<path id="XMLID_14512_" style="fill:#27DEBF;" d="M175.932,284.809v1.69c0,0.828-0.581,1.836-1.299,2.25l-1.464,0.845
						c-0.717,0.414-1.299,0.079-1.299-0.75l0-1.691c0-0.828,0.581-1.836,1.299-2.25l1.464-0.845
						C175.35,283.645,175.932,283.981,175.932,284.809z"/>
				</g>
				<g id="XMLID_14444_">
					<path id="XMLID_14537_" style="fill:#E0E0E0;" d="M181.293,288.491l19.433-11.233c0.717-0.415,1.298-0.079,1.298,0.749l0,1.69
						c0,0.828-0.582,1.836-1.299,2.251l-19.434,11.233c-0.717,0.415-1.299,0.079-1.298-0.749l0.001-1.69
						C179.994,289.914,180.576,288.906,181.293,288.491z"/>
					<path id="XMLID_14527_" style="fill:#27DEBF;" d="M175.932,293.087v1.691c0,0.828-0.581,1.836-1.299,2.25l-1.464,0.845
						c-0.717,0.414-1.299,0.078-1.299-0.75l0-1.691c0-0.828,0.581-1.836,1.299-2.25l1.464-0.845
						C175.35,291.923,175.932,292.259,175.932,293.087z"/>
				</g>
			</g>
			<g id="XMLID_14341_">
				<g id="XMLID_14490_">
					<polygon id="XMLID_14428_" style="fill:#27DEBF;" points="179.994,251.145 179.994,254.061 182.519,251.145 					"/>
					<path id="XMLID_14384_" style="fill:#E0E0E0;" d="M184.056,250.544c0,0.541,0.388,0.756,0.867,0.481l16.235-9.349
						c0.479-0.276,0.867-0.944,0.867-1.492c0-0.549-0.388-0.77-0.866-0.493l-16.236,9.374
						C184.444,249.34,184.056,250.003,184.056,250.544z"/>
				</g>
				<g id="XMLID_14494_">
					<polygon id="XMLID_14497_" style="fill:#27DEBF;" points="179.994,255.834 179.994,258.75 182.519,255.834 					"/>
					<path id="XMLID_14495_" style="fill:#E0E0E0;" d="M184.056,255.233c0,0.541,0.388,0.756,0.867,0.481l16.235-9.349
						c0.479-0.276,0.867-0.944,0.867-1.492c0-0.549-0.388-0.77-0.866-0.493l-16.236,9.374
						C184.444,254.029,184.056,254.692,184.056,255.233z"/>
				</g>
				<g id="XMLID_14503_">
					<polygon id="XMLID_14507_" style="fill:#27DEBF;" points="179.994,260.523 179.994,263.439 182.519,260.523 					"/>
					<path id="XMLID_14505_" style="fill:#E0E0E0;" d="M184.056,259.922c0,0.541,0.388,0.756,0.867,0.481l16.235-9.349
						c0.479-0.276,0.867-0.944,0.867-1.492s-0.388-0.77-0.866-0.493l-16.236,9.374C184.444,258.719,184.056,259.381,184.056,259.922
						z"/>
				</g>
				<g id="XMLID_14509_">
					<polygon id="XMLID_14511_" style="fill:#27DEBF;" points="179.994,265.212 179.994,268.128 182.519,265.212 					"/>
					<path id="XMLID_14510_" style="fill:#E0E0E0;" d="M184.056,264.611c0,0.541,0.388,0.756,0.867,0.481l16.235-9.349
						c0.479-0.276,0.867-0.944,0.867-1.493c0-0.549-0.388-0.77-0.866-0.493l-16.236,9.374
						C184.444,263.408,184.056,264.07,184.056,264.611z"/>
				</g>
			</g>
		</g>
		<g id="XMLID_3549_">
			<g id="XMLID_2830_">
				<g id="XMLID_14305_">
					<path id="XMLID_14308_" style="fill:#27DEBF;" d="M220.615,202.791v24.44c0,1.023,0.718,1.437,1.603,0.926l26.874-15.516
						c0.885-0.511,1.603-1.755,1.603-2.777v-20.098c0-1.023-0.718-1.437-1.603-0.926l-15.594,9.003
						c-0.885,0.511-1.603,0.097-1.603-0.926v-0.639c0-1.023-0.718-1.437-1.603-0.926l-8.073,4.662
						C221.333,200.525,220.615,201.769,220.615,202.791z"/>
					<path id="XMLID_14306_" style="fill:#E0E0E0;" d="M225.897,231.842v1.565c0,0.767,0.538,1.078,1.202,0.694l20.158-11.639
						c0.664-0.383,1.202-1.316,1.202-2.083v-1.565c0-0.767-0.538-1.078-1.203-0.694L227.1,229.759
						C226.435,230.142,225.897,231.075,225.897,231.842z"/>
				</g>
				<g id="XMLID_14302_">
					<path id="XMLID_14304_" style="fill:#27DEBF;" d="M257.978,181.336v24.44c0,1.023,0.718,1.437,1.603,0.926l26.874-15.516
						c0.885-0.511,1.603-1.755,1.603-2.777V168.31c0-1.022-0.718-1.437-1.603-0.926l-15.594,9.003
						c-0.885,0.511-1.603,0.097-1.603-0.926l0-0.639c0-1.023-0.718-1.437-1.603-0.926l-8.073,4.662
						C258.695,179.071,257.978,180.314,257.978,181.336z"/>
					<path id="XMLID_14303_" style="fill:#E0E0E0;" d="M263.26,210.387v1.565c0,0.767,0.538,1.078,1.203,0.694l20.158-11.639
						c0.664-0.383,1.203-1.316,1.203-2.083v-1.565c0-0.767-0.538-1.078-1.203-0.694l-20.158,11.638
						C263.798,208.687,263.26,209.62,263.26,210.387z"/>
				</g>
				<g id="XMLID_3534_">
					<path id="XMLID_3536_" style="fill:#27DEBF;" d="M220.615,251.89v24.44c0,1.022,0.718,1.437,1.603,0.926l26.874-15.516
						c0.885-0.511,1.603-1.755,1.603-2.777v-20.098c0-1.023-0.718-1.437-1.603-0.926l-15.594,9.003
						c-0.885,0.511-1.603,0.097-1.603-0.926v-0.639c0-1.022-0.718-1.437-1.603-0.926l-8.073,4.662
						C221.333,249.624,220.615,250.867,220.615,251.89z"/>
					<path id="XMLID_3535_" style="fill:#E0E0E0;" d="M225.897,280.94v1.565c0,0.767,0.538,1.078,1.202,0.694l20.158-11.639
						c0.664-0.383,1.202-1.316,1.202-2.083v-1.565c0-0.767-0.538-1.078-1.203-0.694L227.1,278.857
						C226.435,279.241,225.897,280.173,225.897,280.94z"/>
				</g>
				<g id="XMLID_3293_">
					<path id="XMLID_3533_" style="fill:#27DEBF;" d="M257.978,230.435v24.44c0,1.022,0.718,1.437,1.603,0.926l26.874-15.516
						c0.885-0.511,1.603-1.755,1.603-2.777v-20.098c0-1.023-0.718-1.437-1.603-0.926l-15.594,9.003
						c-0.885,0.511-1.603,0.097-1.603-0.926l0-0.639c0-1.022-0.718-1.437-1.603-0.926l-8.073,4.662
						C258.695,228.169,257.978,229.412,257.978,230.435z"/>
					<path id="XMLID_3524_" style="fill:#E0E0E0;" d="M263.26,259.485v1.565c0,0.767,0.538,1.078,1.203,0.694l20.158-11.639
						c0.664-0.383,1.203-1.316,1.203-2.083v-1.565c0-0.767-0.538-1.078-1.203-0.694l-20.158,11.638
						C263.798,257.786,263.26,258.718,263.26,259.485z"/>
				</g>
				<g id="XMLID_14298_">
					<path id="XMLID_14301_" style="fill:#27DEBF;" d="M295.778,158.702v24.44c0,1.023,0.718,1.437,1.603,0.926l26.874-15.516
						c0.885-0.511,1.603-1.755,1.603-2.777v-20.098c0-1.022-0.718-1.437-1.603-0.926l-15.594,9.003
						c-0.885,0.511-1.603,0.097-1.603-0.926l0-0.639c0-1.023-0.718-1.437-1.603-0.926l-8.073,4.662
						C296.496,156.437,295.778,157.68,295.778,158.702z"/>
					<path id="XMLID_14300_" style="fill:#E0E0E0;" d="M300.622,188.932v1.565c0,0.767,0.538,1.078,1.203,0.694l20.158-11.639
						c0.664-0.383,1.203-1.316,1.203-2.083v-1.565c0-0.767-0.538-1.078-1.203-0.694l-20.158,11.638
						C301.161,187.232,300.622,188.165,300.622,188.932z"/>
				</g>
				<g id="XMLID_14273_">
					<path id="XMLID_14297_" style="fill:#27DEBF;" d="M332.703,138.427v24.44c0,1.023,0.718,1.437,1.603,0.926l26.874-15.516
						c0.885-0.511,1.603-1.755,1.603-2.777v-20.098c0-1.022-0.718-1.437-1.603-0.926l-15.595,9.003
						c-0.885,0.511-1.603,0.097-1.603-0.926l0-0.639c0-1.022-0.718-1.437-1.603-0.926l-8.073,4.662
						C333.421,136.161,332.703,137.404,332.703,138.427z"/>
					<path id="XMLID_14296_" style="fill:#E0E0E0;" d="M337.985,167.477v1.565c0,0.767,0.538,1.078,1.203,0.694l20.158-11.639
						c0.664-0.383,1.202-1.316,1.202-2.083v-1.565c0-0.767-0.538-1.078-1.202-0.694l-20.158,11.638
						C338.524,165.778,337.985,166.71,337.985,167.477z"/>
				</g>
			</g>
			<g id="XMLID_3931_">
				<path id="XMLID_3538_" style="fill:#E0E0E0;" d="M300.622,238.012v1.565c0,0.767,0.538,1.078,1.203,0.694l20.158-11.639
					c0.664-0.383,1.203-1.316,1.203-2.083v-1.565c0-0.767-0.538-1.078-1.203-0.694l-20.158,11.638
					C301.161,236.312,300.622,237.245,300.622,238.012z"/>
				<g id="XMLID_3545_">
					<g id="XMLID_3539_">
						<path id="XMLID_3292_" style="fill:#FAFAFA;stroke:#EBEBEB;stroke-miterlimit:10;" d="M301.128,203.663l20.908-12.071
							c0.957-0.552,1.732-0.105,1.732,1v24.139c0,1.105-0.776,2.448-1.732,3l-20.908,12.072c-0.957,0.552-1.732,0.105-1.732-1
							v-24.139C299.396,205.558,300.171,204.215,301.128,203.663z"/>
						<path id="XMLID_3537_" style="fill:#27DEBF;" d="M324.496,194.852l-4.66,2.691c-0.957,0.552-1.732,1.895-1.732,3v5.381
							c0,1.105,0.775,1.552,1.732,1l4.66-2.691c0.957-0.552,1.732-1.896,1.732-3v-5.381
							C326.228,194.747,325.452,194.3,324.496,194.852z"/>
					</g>
					<path id="XMLID_3544_" style="fill:#EBEBEB;" d="M302.722,206.27l10.473-6.026c0.479-0.275,0.867-0.051,0.867,0.501v0.333
						c0,0.552-0.388,1.224-0.866,1.499l-10.474,6.037c-0.479,0.276-0.866,0.052-0.866-0.501l0-0.346
						C301.855,207.217,302.243,206.546,302.722,206.27z"/>
					<path id="XMLID_3547_" style="fill:#EBEBEB;" d="M302.722,210.954l10.473-6.026c0.479-0.275,0.867-0.051,0.867,0.501v0.334
						c0,0.552-0.388,1.223-0.866,1.499l-10.474,6.037c-0.479,0.276-0.866,0.052-0.866-0.501l0-0.346
						C301.855,211.901,302.243,211.23,302.722,210.954z"/>
					<path id="XMLID_3548_" style="fill:#EBEBEB;" d="M302.722,215.639l10.473-6.026c0.479-0.275,0.867-0.051,0.867,0.501v0.333
						c0,0.552-0.388,1.224-0.866,1.499l-10.474,6.037c-0.479,0.276-0.866,0.052-0.866-0.501l0-0.346
						C301.855,216.585,302.243,215.914,302.722,215.639z"/>
					<path id="XMLID_3868_" style="fill:#EBEBEB;" d="M302.722,220.323l17.4-10.031c0.479-0.275,0.867-0.051,0.867,0.501v0.334
						c0,0.552-0.388,1.224-0.866,1.499l-17.401,10.042c-0.479,0.276-0.866,0.052-0.866-0.501l0-0.346
						C301.855,221.27,302.243,220.599,302.722,220.323z"/>
					<path id="XMLID_3921_" style="fill:#EBEBEB;" d="M302.722,225.008l17.4-10.031c0.479-0.276,0.867-0.051,0.867,0.501v0.334
						c0,0.552-0.388,1.223-0.866,1.499l-17.401,10.042c-0.479,0.276-0.866,0.052-0.866-0.501l0-0.346
						C301.855,225.954,302.243,225.283,302.722,225.008z"/>
				</g>
			</g>
			<g id="XMLID_14270_">
				<path id="XMLID_14317_" style="fill:#E0E0E0;" d="M337.181,216.906v1.565c0,0.767,0.538,1.078,1.202,0.694l20.158-11.639
					c0.664-0.383,1.203-1.316,1.203-2.083v-1.565c0-0.767-0.538-1.078-1.203-0.694l-20.158,11.638
					C337.719,215.206,337.181,216.139,337.181,216.906z"/>
				<g id="XMLID_14271_">
					<g id="XMLID_14314_">
						<path id="XMLID_14316_" style="fill:#FAFAFA;stroke:#EBEBEB;stroke-miterlimit:10;" d="M337.686,182.557l20.908-12.071
							c0.957-0.552,1.732-0.104,1.732,1v24.139c0,1.105-0.775,2.448-1.732,3l-20.908,12.072c-0.957,0.552-1.732,0.105-1.732-1
							v-24.139C335.954,184.453,336.729,183.11,337.686,182.557z"/>
						<path id="XMLID_14315_" style="fill:#27DEBF;" d="M361.054,173.746l-4.66,2.691c-0.957,0.552-1.732,1.895-1.732,3v5.381
							c0,1.104,0.775,1.552,1.732,1l4.66-2.691c0.957-0.552,1.732-1.895,1.732-3v-5.381
							C362.786,173.642,362.01,173.194,361.054,173.746z"/>
					</g>
					<path id="XMLID_14313_" style="fill:#EBEBEB;" d="M339.28,185.164l10.473-6.026c0.479-0.275,0.867-0.051,0.867,0.501v0.334
						c0,0.552-0.388,1.223-0.866,1.499l-10.474,6.037c-0.478,0.276-0.866,0.052-0.866-0.501l0-0.346
						C338.413,186.111,338.802,185.44,339.28,185.164z"/>
					<path id="XMLID_14312_" style="fill:#EBEBEB;" d="M339.28,189.849l10.473-6.026c0.479-0.275,0.867-0.051,0.867,0.501v0.333
						c0,0.552-0.388,1.224-0.866,1.499l-10.474,6.037c-0.478,0.276-0.866,0.052-0.866-0.501l0-0.346
						C338.413,190.795,338.802,190.124,339.28,189.849z"/>
					<path id="XMLID_14311_" style="fill:#EBEBEB;" d="M339.28,194.533l10.473-6.026c0.479-0.275,0.867-0.051,0.867,0.501v0.334
						c0,0.552-0.388,1.223-0.866,1.499l-10.474,6.037c-0.478,0.276-0.866,0.052-0.866-0.501l0-0.346
						C338.413,195.48,338.802,194.809,339.28,194.533z"/>
					<path id="XMLID_14310_" style="fill:#EBEBEB;" d="M339.28,199.218l17.4-10.031c0.479-0.276,0.867-0.051,0.867,0.501v0.334
						c0,0.552-0.388,1.223-0.866,1.499l-17.401,10.042c-0.478,0.276-0.866,0.052-0.866-0.501l0-0.346
						C338.413,200.164,338.802,199.493,339.28,199.218z"/>
					<path id="XMLID_14309_" style="fill:#EBEBEB;" d="M339.28,203.902l17.4-10.031c0.479-0.275,0.867-0.051,0.867,0.501v0.333
						c0,0.552-0.388,1.224-0.866,1.499l-17.401,10.042c-0.478,0.276-0.866,0.052-0.866-0.501l0-0.346
						C338.413,204.849,338.802,204.178,339.28,203.902z"/>
				</g>
			</g>
			<g id="XMLID_14329_">
				<path id="XMLID_14339_" style="fill:#E0E0E0;" d="M300.622,287.83v1.565c0,0.767,0.538,1.078,1.203,0.694l20.158-11.639
					c0.664-0.383,1.203-1.316,1.203-2.083v-1.565c0-0.767-0.538-1.078-1.203-0.694l-20.158,11.638
					C301.161,286.131,300.622,287.064,300.622,287.83z"/>
				<g id="XMLID_14330_">
					<g id="XMLID_14336_">
						<path id="XMLID_14338_" style="fill:#FAFAFA;stroke:#EBEBEB;stroke-miterlimit:10;" d="M301.128,253.482l20.908-12.071
							c0.957-0.552,1.732-0.104,1.732,1v24.139c0,1.105-0.776,2.448-1.732,3l-20.908,12.072c-0.957,0.552-1.732,0.104-1.732-1
							v-24.139C299.396,255.377,300.171,254.034,301.128,253.482z"/>
						<path id="XMLID_14337_" style="fill:#27DEBF;" d="M324.496,244.671l-4.66,2.691c-0.957,0.552-1.732,1.895-1.732,3v5.381
							c0,1.105,0.775,1.552,1.732,1l4.66-2.691c0.957-0.552,1.732-1.895,1.732-3v-5.381
							C326.228,244.566,325.452,244.118,324.496,244.671z"/>
					</g>
					<path id="XMLID_14335_" style="fill:#EBEBEB;" d="M302.722,256.089l10.473-6.026c0.479-0.275,0.867-0.051,0.867,0.501v0.334
						c0,0.552-0.388,1.224-0.866,1.499l-10.474,6.037c-0.479,0.276-0.866,0.052-0.866-0.501l0-0.346
						C301.855,257.035,302.243,256.364,302.722,256.089z"/>
					<path id="XMLID_14334_" style="fill:#EBEBEB;" d="M302.722,260.773l10.473-6.026c0.479-0.275,0.867-0.051,0.867,0.501v0.333
						c0,0.552-0.388,1.224-0.866,1.499l-10.474,6.037c-0.479,0.276-0.866,0.052-0.866-0.501l0-0.346
						C301.855,261.72,302.243,261.049,302.722,260.773z"/>
					<path id="XMLID_14333_" style="fill:#EBEBEB;" d="M302.722,265.458l10.473-6.026c0.479-0.276,0.867-0.051,0.867,0.501v0.334
						c0,0.552-0.388,1.224-0.866,1.499l-10.474,6.037c-0.479,0.276-0.866,0.052-0.866-0.501l0-0.346
						C301.855,266.404,302.243,265.733,302.722,265.458z"/>
					<path id="XMLID_14332_" style="fill:#EBEBEB;" d="M302.722,270.142l17.4-10.031c0.479-0.276,0.867-0.051,0.867,0.501v0.334
						c0,0.552-0.388,1.223-0.866,1.499l-17.401,10.042c-0.479,0.276-0.866,0.052-0.866-0.501l0-0.346
						C301.855,271.089,302.243,270.418,302.722,270.142z"/>
					<path id="XMLID_14331_" style="fill:#EBEBEB;" d="M302.722,274.827l17.4-10.031c0.479-0.275,0.867-0.051,0.867,0.501v0.333
						c0,0.552-0.388,1.224-0.866,1.499l-17.401,10.042c-0.479,0.276-0.866,0.052-0.866-0.501l0-0.345
						C301.855,275.773,302.243,275.102,302.722,274.827z"/>
				</g>
			</g>
			<g id="XMLID_14318_">
				<path id="XMLID_14328_" style="fill:#E0E0E0;" d="M337.181,266.725v1.565c0,0.767,0.538,1.078,1.202,0.694l20.158-11.639
					c0.664-0.383,1.203-1.316,1.203-2.083v-1.565c0-0.767-0.538-1.078-1.203-0.694l-20.158,11.638
					C337.719,265.025,337.181,265.958,337.181,266.725z"/>
				<g id="XMLID_14319_">
					<g id="XMLID_14325_">
						<path id="XMLID_14327_" style="fill:#FAFAFA;stroke:#EBEBEB;stroke-miterlimit:10;" d="M337.686,232.376l20.908-12.071
							c0.957-0.552,1.732-0.105,1.732,1v24.138c0,1.105-0.775,2.448-1.732,3l-20.908,12.072c-0.957,0.552-1.732,0.105-1.732-1
							v-24.139C335.954,234.272,336.729,232.928,337.686,232.376z"/>
						<path id="XMLID_14326_" style="fill:#27DEBF;" d="M361.054,223.565l-4.66,2.691c-0.957,0.552-1.732,1.896-1.732,3v5.381
							c0,1.105,0.775,1.552,1.732,1l4.66-2.691c0.957-0.552,1.732-1.895,1.732-3v-5.381
							C362.786,223.46,362.01,223.013,361.054,223.565z"/>
					</g>
					<path id="XMLID_14324_" style="fill:#EBEBEB;" d="M339.28,234.983l10.473-6.026c0.479-0.275,0.867-0.051,0.867,0.501v0.333
						c0,0.552-0.388,1.224-0.866,1.499l-10.474,6.037c-0.478,0.276-0.866,0.052-0.866-0.501l0-0.346
						C338.413,235.93,338.802,235.259,339.28,234.983z"/>
					<path id="XMLID_14323_" style="fill:#EBEBEB;" d="M339.28,239.668l10.473-6.026c0.479-0.275,0.867-0.051,0.867,0.501v0.334
						c0,0.552-0.388,1.223-0.866,1.499l-10.474,6.037c-0.478,0.276-0.866,0.052-0.866-0.501l0-0.346
						C338.413,240.614,338.802,239.943,339.28,239.668z"/>
					<path id="XMLID_14322_" style="fill:#EBEBEB;" d="M339.28,244.352l10.473-6.026c0.479-0.275,0.867-0.051,0.867,0.501v0.334
						c0,0.552-0.388,1.224-0.866,1.499l-10.474,6.037c-0.478,0.276-0.866,0.052-0.866-0.501l0-0.345
						C338.413,245.299,338.802,244.628,339.28,244.352z"/>
					<path id="XMLID_14321_" style="fill:#EBEBEB;" d="M339.28,249.037l17.4-10.031c0.479-0.275,0.867-0.051,0.867,0.501v0.333
						c0,0.552-0.388,1.224-0.866,1.499l-17.401,10.042c-0.478,0.276-0.866,0.052-0.866-0.501l0-0.346
						C338.413,249.983,338.802,249.312,339.28,249.037z"/>
					<path id="XMLID_14320_" style="fill:#EBEBEB;" d="M339.28,253.721l17.4-10.031c0.479-0.275,0.867-0.051,0.867,0.501v0.334
						c0,0.552-0.388,1.224-0.866,1.499l-17.401,10.042c-0.478,0.276-0.866,0.052-0.866-0.501l0-0.346
						C338.413,254.667,338.802,253.997,339.28,253.721z"/>
				</g>
			</g>
			<g id="XMLID_14353_">
				<path id="XMLID_14376_" style="fill:#E0E0E0;" d="M225.903,330.998v1.565c0,0.767,0.538,1.078,1.202,0.694l20.158-11.639
					c0.664-0.383,1.202-1.316,1.202-2.083v-1.565c0-0.767-0.538-1.078-1.202-0.694l-20.158,11.638
					C226.441,329.298,225.903,330.231,225.903,330.998z"/>
				<g id="XMLID_14354_">
					<g id="XMLID_14373_">
						<path id="XMLID_14375_" style="fill:#FAFAFA;stroke:#EBEBEB;stroke-miterlimit:10;" d="M226.408,296.649l20.908-12.071
							c0.957-0.552,1.732-0.105,1.732,1v24.139c0,1.105-0.775,2.448-1.732,3l-20.908,12.072c-0.956,0.552-1.732,0.105-1.732-1
							v-24.139C224.676,298.545,225.452,297.202,226.408,296.649z"/>
						<path id="XMLID_14374_" style="fill:#27DEBF;" d="M249.776,287.838l-4.66,2.691c-0.957,0.552-1.732,1.895-1.732,3v5.381
							c0,1.105,0.775,1.552,1.732,1l4.66-2.691c0.957-0.552,1.732-1.895,1.732-3v-5.381
							C251.508,287.734,250.733,287.286,249.776,287.838z"/>
					</g>
					<path id="XMLID_14372_" style="fill:#EBEBEB;" d="M228.003,299.256l10.473-6.026c0.479-0.275,0.867-0.051,0.867,0.501v0.333
						c0,0.552-0.388,1.224-0.866,1.499l-10.474,6.037c-0.479,0.276-0.866,0.052-0.866-0.501l0-0.345
						C227.136,300.203,227.524,299.532,228.003,299.256z"/>
					<path id="XMLID_14371_" style="fill:#EBEBEB;" d="M228.003,303.941l10.473-6.026c0.479-0.276,0.867-0.051,0.867,0.501v0.334
						c0,0.552-0.388,1.224-0.866,1.499l-10.474,6.037c-0.479,0.276-0.866,0.052-0.866-0.501l0-0.346
						C227.136,304.887,227.524,304.216,228.003,303.941z"/>
					<path id="XMLID_14370_" style="fill:#EBEBEB;" d="M228.003,308.625l10.473-6.026c0.479-0.275,0.867-0.051,0.867,0.501v0.333
						c0,0.552-0.388,1.224-0.866,1.499l-10.474,6.037c-0.479,0.276-0.866,0.052-0.866-0.501l0-0.346
						C227.136,309.572,227.524,308.901,228.003,308.625z"/>
					<path id="XMLID_14369_" style="fill:#EBEBEB;" d="M228.003,313.31l17.4-10.031c0.479-0.275,0.867-0.051,0.867,0.501v0.333
						c0,0.552-0.388,1.224-0.866,1.499l-17.401,10.042c-0.479,0.276-0.866,0.052-0.866-0.501l0-0.345
						C227.136,314.256,227.524,313.585,228.003,313.31z"/>
					<path id="XMLID_14356_" style="fill:#EBEBEB;" d="M228.003,317.994l17.4-10.031c0.479-0.275,0.867-0.051,0.867,0.501v0.333
						c0,0.552-0.388,1.224-0.866,1.499l-17.401,10.042c-0.479,0.276-0.866,0.052-0.866-0.501l0-0.346
						C227.136,318.94,227.524,318.27,228.003,317.994z"/>
				</g>
			</g>
			<g id="XMLID_14342_">
				<path id="XMLID_14352_" style="fill:#E0E0E0;" d="M262.461,309.892v1.565c0,0.767,0.538,1.078,1.203,0.694l20.158-11.639
					c0.664-0.383,1.203-1.316,1.203-2.083v-1.565c0-0.767-0.538-1.078-1.203-0.694l-20.158,11.638
					C262.999,308.193,262.461,309.125,262.461,309.892z"/>
				<g id="XMLID_14343_">
					<g id="XMLID_14349_">
						<path id="XMLID_14351_" style="fill:#FAFAFA;stroke:#EBEBEB;stroke-miterlimit:10;" d="M262.966,275.544l20.908-12.071
							c0.957-0.552,1.732-0.105,1.732,1v24.139c0,1.105-0.775,2.448-1.732,3l-20.908,12.072c-0.957,0.552-1.732,0.105-1.732-1
							v-24.139C261.234,277.439,262.01,276.096,262.966,275.544z"/>
						<path id="XMLID_14350_" style="fill:#27DEBF;" d="M286.334,266.733l-4.66,2.691c-0.957,0.552-1.732,1.896-1.732,3v5.381
							c0,1.104,0.776,1.552,1.732,1l4.66-2.691c0.957-0.552,1.732-1.896,1.732-3v-5.381
							C288.066,266.628,287.291,266.18,286.334,266.733z"/>
					</g>
					<path id="XMLID_14348_" style="fill:#EBEBEB;" d="M264.561,278.151l10.473-6.026c0.479-0.276,0.867-0.051,0.867,0.501v0.334
						c0,0.552-0.388,1.224-0.866,1.499l-10.474,6.037c-0.479,0.276-0.866,0.052-0.866-0.501l0-0.346
						C263.694,279.097,264.082,278.426,264.561,278.151z"/>
					<path id="XMLID_14347_" style="fill:#EBEBEB;" d="M264.561,282.835l10.473-6.026c0.479-0.275,0.867-0.051,0.867,0.501v0.333
						c0,0.552-0.388,1.224-0.866,1.499l-10.474,6.037c-0.479,0.276-0.866,0.052-0.866-0.501l0-0.346
						C263.694,283.782,264.082,283.111,264.561,282.835z"/>
					<path id="XMLID_14346_" style="fill:#EBEBEB;" d="M264.561,287.52l10.473-6.026c0.479-0.275,0.867-0.051,0.867,0.501v0.333
						c0,0.552-0.388,1.224-0.866,1.499l-10.474,6.037c-0.479,0.276-0.866,0.052-0.866-0.501l0-0.345
						C263.694,288.466,264.082,287.795,264.561,287.52z"/>
					<path id="XMLID_14345_" style="fill:#EBEBEB;" d="M264.561,292.204l17.4-10.031c0.479-0.276,0.867-0.051,0.867,0.501v0.333
						c0,0.552-0.388,1.224-0.866,1.499l-17.401,10.042c-0.479,0.276-0.866,0.052-0.866-0.501l0-0.346
						C263.694,293.15,264.082,292.479,264.561,292.204z"/>
					<path id="XMLID_14344_" style="fill:#EBEBEB;" d="M264.561,296.888l17.4-10.031c0.479-0.275,0.867-0.051,0.867,0.501v0.333
						c0,0.552-0.388,1.224-0.866,1.499l-17.401,10.042c-0.479,0.276-0.866,0.052-0.866-0.501l0-0.345
						C263.694,297.835,264.082,297.164,264.561,296.888z"/>
				</g>
			</g>
		</g>
		<g id="XMLID_14438_">
			<polygon id="XMLID_14377_" style="fill:#27DEBF;" points="167.806,201.907 163.746,199.545 163.746,218.311 167.806,220.656 			
				"/>
			<polygon id="XMLID_14400_" style="opacity:0.1;" points="167.806,201.907 163.746,199.545 163.746,218.311 167.806,220.656 			
				"/>
		</g>
	</g>
</g>
<g id="Magnifying_glass">
	<g id="Magnifying_glass_1_">
		<g id="XMLID_14437_">
			<path id="XMLID_14435_" style="fill:#27DEBF;" d="M407.729,279.474L407.729,279.474L407.729,279.474
				c-0.736-0.427-1.753-0.368-2.878,0.278c-2.249,1.292-4.078,4.443-4.084,7.037c-0.003,1.297,0.45,2.21,1.185,2.636l0,0l0,0
				l50.618,32.014l0.003-0.006c1.037,0.695,2.516,0.659,4.165-0.289c3.145-1.806,5.7-6.21,5.708-9.836
				c0.004-1.902-0.697-3.205-1.815-3.76l0.007-0.013L407.729,279.474z"/>
			<path id="XMLID_14433_" style="opacity:0.15;" d="M400.768,286.789c-0.006,2.594,1.813,3.65,4.063,2.358
				c2.25-1.292,4.078-4.443,4.084-7.037c0.006-2.594-1.813-3.65-4.063-2.358C402.602,281.044,400.774,284.195,400.768,286.789z"/>
			<path id="XMLID_14431_" style="fill:#263238;" d="M389.567,272.741c-1.36,0.781-2.466,2.686-2.469,4.255
				c-0.002,0.784,0.272,1.336,0.717,1.594l-0.001,0.001l15.28,8.868l0.001-0.001c0.445,0.258,1.06,0.222,1.74-0.168
				c1.36-0.781,2.466-2.686,2.469-4.255c0.002-0.784-0.272-1.336-0.717-1.594l-15.281-8.868l0,0
				C390.862,272.315,390.247,272.35,389.567,272.741z"/>
			<path id="XMLID_3945_" style="opacity:0.1;" d="M406.744,287.493l52.076,31.996c-0.647,0.655-1.339,1.233-2.08,1.655
				c-1.648,0.945-3.128,0.987-4.167,0.285l-0.004,0.008l-50.612-32.008c0.741,0.43,1.751,0.363,2.877-0.281
				C405.522,288.745,406.172,288.172,406.744,287.493z"/>
		</g>
		<g id="XMLID_14272_">
			<path id="XMLID_14417_" style="fill:#27DEBF;" d="M415.481,241.934c-0.01-0.429-0.031-0.848-0.063-1.267
				c-0.021-0.419-0.052-0.827-0.094-1.235c-0.021-0.272-0.052-0.544-0.084-0.816c-0.073-0.712-0.178-1.413-0.293-2.083
				c-0.052-0.304-0.105-0.618-0.167-0.921c-0.052-0.293-0.115-0.576-0.178-0.858c-0.178-0.775-0.366-1.528-0.586-2.251
				c-0.115-0.345-0.22-0.691-0.335-1.026c-0.021-0.052-0.042-0.105-0.052-0.157c-0.126-0.335-0.241-0.66-0.366-0.973
				c-0.146-0.367-0.293-0.733-0.461-1.078c-0.115-0.262-0.23-0.513-0.366-0.764c-0.073-0.188-0.167-0.366-0.272-0.544
				c-0.105-0.22-0.22-0.44-0.346-0.649c-0.031-0.052-0.052-0.105-0.084-0.147c-0.105-0.188-0.22-0.377-0.335-0.565
				c-0.073-0.126-0.157-0.241-0.231-0.356c-0.554-0.869-1.151-1.664-1.8-2.397c-0.115-0.126-0.23-0.251-0.335-0.377
				c-0.094-0.105-0.188-0.199-0.282-0.293c-0.115-0.126-0.241-0.241-0.367-0.366c-0.356-0.356-0.712-0.68-1.089-0.974
				c-0.178-0.157-0.366-0.304-0.555-0.44c-0.188-0.147-0.377-0.283-0.576-0.419c-0.304-0.22-0.618-0.429-0.932-0.607
				c-0.084-0.052-0.167-0.105-0.251-0.157l-0.052-0.042c-0.01,0-0.01,0-0.01,0l-11.028-6.388c-0.011,0-0.011,0-0.021,0l-0.084-0.052
				c-2.722-1.549-5.862-2.355-9.317-2.355c-4.857,0-10.343,1.591-16.152,4.941c-19.953,11.526-36.137,39.549-36.137,62.601
				c0,11.494,4.02,19.576,10.521,23.365l0.063,0.031c0,0,0,0,0,0.01l11.039,6.378c0,0.01,0,0.01,0.01,0.01l0.063,0.042v-0.01
				c0.063,0.031,0.115,0.063,0.178,0.094c0.282,0.168,0.565,0.314,0.858,0.45c0.356,0.178,0.723,0.335,1.089,0.482
				c0.325,0.136,0.66,0.262,0.994,0.366c0.178,0.063,0.356,0.115,0.534,0.157c0.189,0.073,0.377,0.126,0.576,0.167
				c0.199,0.063,0.387,0.105,0.586,0.147c0.146,0.042,0.283,0.073,0.429,0.094c0.251,0.052,0.523,0.105,0.785,0.136
				c0.063,0.021,0.115,0.031,0.178,0.031c0.314,0.052,0.628,0.094,0.942,0.126c5.381,0.565,11.641-0.952,18.341-4.815
				c19.963-11.526,36.147-39.56,36.147-62.6C415.512,243.023,415.502,242.478,415.481,241.934z M391.268,225.635
				c0.953,3.245,1.141,6.595,1.141,8.793c0,20.33-14.875,46.092-32.483,56.257c-2.858,1.643-5.642,2.806-8.238,3.423
				c-0.942-3.245-1.141-6.595-1.141-8.804c0-20.329,14.875-46.092,32.483-56.257C385.887,227.404,388.671,226.252,391.268,225.635z"
				/>
			<path id="XMLID_14415_" style="opacity:0.1;" d="M353.3,308.416l-10.602-6.14c-6.501-3.8-10.521-11.882-10.521-23.355
				c0-10.28,3.224-21.544,8.553-31.886l11.037,6.385c-5.339,10.343-8.553,21.607-8.553,31.887
				C343.214,296.548,347.04,304.522,353.3,308.416z"/>
			<path id="XMLID_14401_" style="opacity:0.4;fill:#FFFFFF;" d="M415.481,241.934c-0.01-0.429-0.031-0.848-0.063-1.267
				c-0.021-0.419-0.052-0.827-0.094-1.235c-0.021-0.272-0.052-0.544-0.084-0.816c-0.073-0.712-0.178-1.413-0.293-2.083
				c-0.052-0.304-0.105-0.618-0.167-0.921c-0.052-0.293-0.115-0.576-0.178-0.858c-0.178-0.775-0.366-1.528-0.586-2.251
				c-0.115-0.345-0.22-0.691-0.335-1.026c-0.021-0.052-0.042-0.105-0.052-0.157c-0.126-0.335-0.241-0.66-0.366-0.973
				c-0.146-0.367-0.293-0.733-0.461-1.078c-0.115-0.262-0.23-0.513-0.366-0.764c-0.073-0.188-0.167-0.366-0.272-0.544
				c-0.105-0.22-0.22-0.44-0.346-0.649c-0.031-0.052-0.052-0.105-0.084-0.147c-0.105-0.188-0.22-0.377-0.335-0.565
				c-0.073-0.126-0.157-0.241-0.231-0.356c-0.554-0.869-1.151-1.664-1.8-2.397c-0.115-0.126-0.23-0.251-0.335-0.377
				c-0.094-0.105-0.188-0.199-0.282-0.293c-0.115-0.126-0.241-0.241-0.367-0.366c-0.356-0.356-0.712-0.68-1.089-0.974
				c-0.178-0.157-0.366-0.304-0.555-0.44c-0.188-0.147-0.377-0.283-0.576-0.419c-0.304-0.22-0.618-0.429-0.932-0.607
				c-6.564-3.988-15.967-3.903-25.867,2.335c-19.805,12.479-36.049,40.142-36.147,62.6c-0.051,11.672,4.145,19.827,10.835,23.533
				c0.282,0.168,0.565,0.314,0.858,0.45c0.356,0.178,0.723,0.335,1.089,0.482c0.325,0.136,0.66,0.262,0.994,0.366
				c0.178,0.063,0.356,0.115,0.534,0.157c0.189,0.073,0.377,0.126,0.576,0.167c0.199,0.063,0.387,0.105,0.586,0.147
				c0.146,0.042,0.283,0.073,0.429,0.094c0.251,0.052,0.523,0.105,0.785,0.136c0.063,0.021,0.115,0.031,0.178,0.031
				c0.314,0.052,0.628,0.094,0.942,0.126c5.381,0.565,11.641-0.952,18.341-4.815c19.963-11.526,36.147-39.56,36.147-62.6
				C415.512,243.023,415.502,242.478,415.481,241.934z M375.701,299.834c-4.48,2.586-8.793,3.947-12.478,3.947
				c-6.92,0-10.102-4.721-11.536-9.673c-0.942-3.245-1.141-6.595-1.141-8.804c0-20.329,14.875-46.092,32.483-56.257
				c2.858-1.644,5.642-2.795,8.239-3.413c1.486-0.356,2.9-0.534,4.24-0.534c11.442,0,12.667,12.918,12.667,18.477
				C408.174,263.907,393.309,289.669,375.701,299.834z"/>
			<path id="XMLID_14538_" style="opacity:0.1;" d="M408.171,243.578c0,20.327-14.862,46.093-32.473,56.252
				c-4.48,2.587-8.788,3.949-12.472,3.949c-3.912,0-6.619-1.517-8.503-3.725c-0.004-0.001-0.008-0.001-0.012-0.001
				c-0.18-0.214-0.351-0.428-0.522-0.651c-0.163-0.223-0.326-0.454-0.471-0.694c-0.112-0.163-0.214-0.334-0.309-0.505
				c-0.069-0.111-0.137-0.223-0.197-0.334c-0.077-0.137-0.146-0.274-0.223-0.42c-0.068-0.128-0.128-0.257-0.188-0.385
				c-0.069-0.128-0.128-0.266-0.188-0.402c-0.103-0.24-0.206-0.471-0.3-0.72c-0.12-0.3-0.231-0.6-0.334-0.908
				c-0.103-0.308-0.206-0.617-0.291-0.925c2.596-0.617,5.379-1.782,8.24-3.426c17.603-10.159,32.482-35.925,32.482-56.252
				c0-2.201-0.189-5.551-1.139-8.797c1.482-0.351,2.895-0.531,4.24-0.531c0.583,0,1.139,0.034,1.67,0.103
				c0.18,0.017,0.351,0.051,0.523,0.077c0.002,0.002,0.004,0.005,0.005,0.007C407.1,226.844,408.171,238.398,408.171,243.578z"/>
			<path id="XMLID_14454_" style="opacity:0.7;fill:#FFFFFF;" d="M401.85,240.032c0,20.327-14.862,46.093-32.473,56.252
				c-4.48,2.587-8.788,3.949-12.48,3.949c-0.771,0-1.499-0.06-2.184-0.18c-0.18-0.214-0.351-0.428-0.522-0.651
				c-0.163-0.223-0.326-0.454-0.471-0.694c-0.112-0.163-0.214-0.334-0.309-0.505c-0.069-0.111-0.137-0.223-0.197-0.334
				c-0.077-0.137-0.146-0.274-0.223-0.42c-0.068-0.128-0.128-0.257-0.188-0.385c-0.069-0.128-0.128-0.266-0.188-0.402
				c-0.103-0.24-0.206-0.471-0.3-0.72c-0.12-0.3-0.231-0.6-0.334-0.908c-0.103-0.308-0.206-0.617-0.291-0.925
				c2.596-0.617,5.379-1.782,8.24-3.426c17.603-10.159,32.482-35.925,32.482-56.252c0-2.201-0.189-5.551-1.139-8.797
				c1.482-0.351,2.895-0.531,4.24-0.531c0.583,0,1.139,0.034,1.67,0.103c0.18,0.017,0.351,0.051,0.523,0.077
				C401.319,229.538,401.85,236.374,401.85,240.032z"/>
		</g>
	</g>
</g>
</svg>
