<?xml version="1.0" encoding="UTF-8"?>
<svg xmlns="http://www.w3.org/2000/svg" width="240" height="54" viewBox="0 0 240 54" fill="none">
  <path d="M47.0421 13.4632V25.0704L43.7009 26.9853L47.0421 28.9002V40.5074L43.7009 42.4223L40.3302 44.3666L36.9595 46.2815L33.6184 48.2259L30.2477 50.1408L26.877 52.0851L23.5358 54L20.1651 52.0851L16.7944 50.1408L20.1651 48.2259L26.877 44.3666L30.2477 42.4223L33.6184 40.5074L36.9595 38.5925L40.3302 36.6481V32.7889L36.9595 30.874L33.6184 28.9296L30.2477 27.0147L33.6184 25.0998L36.9595 23.126L40.3302 21.2111V17.3519L36.9595 15.4075L33.6184 13.4926L30.2477 11.5777L26.877 9.63339L23.5358 7.71849L20.1651 5.77414L16.7944 3.85925L20.1651 1.91489L23.5358 0L26.877 1.91489L30.2477 3.85925L33.6184 5.77414L36.9595 7.71849L40.3302 9.63339L43.7009 11.5777L47.0421 13.4632Z" fill="#00AA45"></path>
  <path d="M26.8769 32.7893L30.2476 34.7336L26.8769 36.6485L23.5358 38.5929L20.1651 40.5078L16.7944 42.4227L13.4532 44.367L10.0825 46.2819L6.71184 44.367L3.3707 42.4227L0 40.5078V13.4636L3.3707 11.5487L6.71184 9.60435L10.0825 7.68945L13.4532 9.60435L16.7944 11.5487L13.4532 13.4636L10.0825 15.3785L6.71184 17.3228V25.0413L10.0825 23.097L13.4532 21.1821L16.7944 19.2377L20.1651 17.3228L23.5358 15.3785L26.8769 17.3228L30.2476 19.2377L26.8769 21.1821L23.5358 23.097L20.1651 25.0413L16.7944 26.9562L13.4532 28.8711L10.0825 30.8155L6.71184 32.7304V36.5896L10.0825 38.534L13.4532 36.5896L16.7944 34.6747L20.1651 32.7304L23.5358 30.8155L26.8769 32.7893Z" fill="#00AA45"></path>
  <path d="M65.8765 29.6075C66.2018 30.727 66.8227 31.6403 67.7097 32.2884C68.6263 32.9365 69.7499 33.29 71.0804 33.29C72.4405 33.29 73.4458 33.1133 74.2441 32.7892C75.072 32.4651 75.8112 32.0822 76.5208 31.6403L78.561 35.529C78.1471 35.8236 77.7035 36.1182 77.1713 36.4128C76.6391 36.7074 76.0478 36.9725 75.3973 37.2376C74.7468 37.5028 74.0076 37.709 73.2388 37.8563C72.4405 38.0036 71.5831 38.092 70.6369 38.092C69.0698 38.092 67.6506 37.8268 66.3792 37.326C65.1078 36.8252 64.0138 36.1182 63.1267 35.2049C62.2397 34.2917 61.5597 33.2311 61.0866 31.9643C60.6135 30.6975 60.377 29.3424 60.377 27.8694C60.377 26.5142 60.5839 25.2475 61.0274 24.0396C61.4709 22.8318 62.0919 21.8007 62.9198 20.8874C63.7476 19.9741 64.753 19.2671 65.9357 18.7368C67.1184 18.2065 68.4489 17.9414 69.9568 17.9414C71.4648 17.9414 72.884 18.236 74.0372 18.7957C75.1903 19.3849 76.1365 20.1214 76.8461 21.0642C77.5853 22.0069 78.1175 23.038 78.4723 24.2458C78.8271 25.4242 79.0045 26.6321 79.0045 27.8694C79.0045 28.0462 79.0045 28.3408 78.9749 28.6943C78.9749 29.0478 78.9454 29.3424 78.9158 29.5486L65.8765 29.6075ZM69.8977 22.272C68.8629 22.272 68.0054 22.5961 67.3253 23.2442C66.6453 23.8923 66.1722 24.7761 65.8765 25.8661H73.6528C73.5049 24.835 73.1501 23.9807 72.5588 23.3031C71.9674 22.5961 71.0804 22.2426 69.8977 22.272Z" fill="#111111"></path>
  <path d="M99.0217 25.2472C97.9277 24.0393 96.538 23.0966 94.7935 22.3601L91.7185 20.9755C90.6245 20.5042 89.8262 20.0623 89.3235 19.6204C88.8209 19.1785 88.5548 18.6187 88.5548 17.9117C88.5548 17.2047 88.8505 16.6744 89.4122 16.2619C89.974 15.879 90.6541 15.7022 91.4524 15.7022C91.9846 15.7022 92.5168 15.7611 93.049 15.9084C93.5813 16.0557 94.1135 16.203 94.6161 16.4092C95.1188 16.6155 95.5918 16.8511 96.0354 17.0868C96.4789 17.3225 96.8633 17.5876 97.1885 17.8233L99.7609 13.6989C98.933 13.0508 98.0755 12.4911 97.1885 12.0492C96.745 11.8135 96.3015 11.6073 95.858 11.4305C94.4683 10.8708 92.9308 10.5762 91.2454 10.5762C89.8557 10.5762 88.5843 10.7824 87.4903 11.1359C86.3963 11.5189 85.4502 12.0492 84.6814 12.7562C83.9127 13.4632 83.3213 14.2587 82.9369 15.2014C82.5526 16.1441 82.3456 17.1752 82.3456 18.2947C82.3456 19.4141 82.523 20.3863 82.9074 21.2701C83.2622 22.1245 83.7648 22.8904 84.3562 23.5385C84.9475 24.1866 85.6572 24.7464 86.3963 25.1883C87.1651 25.6302 87.9338 26.0132 88.7322 26.3667L91.8368 27.604C92.6351 27.987 93.256 28.3994 93.7291 28.8413C94.2022 29.2832 94.4387 29.8135 94.4387 30.4911C94.4387 31.257 94.1726 31.8462 93.6404 32.2587C93.1082 32.6711 92.369 32.8773 91.3932 32.8773C90.0331 32.8773 88.7322 32.5533 87.5199 31.8757C86.3076 31.1981 85.1545 30.4911 84.0605 29.6957L81.3994 33.9379C82.0499 34.4976 82.7595 34.9984 83.5283 35.4993C83.7057 35.6171 83.8831 35.7349 84.0605 35.8233C84.6518 36.1768 85.3023 36.5009 85.9528 36.7955C86.7807 37.1785 87.6677 37.4731 88.5548 37.7087C89.4418 37.9444 90.3584 38.0623 91.275 38.0623C92.6055 38.0623 93.8474 37.856 95.0005 37.5025C96.1536 37.1195 97.1294 36.5893 97.9868 35.8822C98.8147 35.1752 99.4652 34.3503 99.9383 33.3192C100.411 32.2881 100.648 31.1686 100.648 29.9019C100.677 27.9575 100.116 26.4551 99.0217 25.2472Z" fill="#111111"></path>
  <path d="M110.73 30.3145V30.8153L110.849 30.6385C110.79 30.5207 110.76 30.4028 110.73 30.3145ZM110.73 30.3145V30.8153L110.849 30.6385C110.79 30.5207 110.76 30.4028 110.73 30.3145Z" fill="#111111"></path>
  <path d="M141.185 18.3831V19.974C140.476 19.3553 139.677 18.8545 138.82 18.501C137.963 18.1475 136.957 17.9707 135.834 17.9707C134.592 17.9707 133.468 18.2064 132.404 18.6777C131.339 19.1491 130.452 19.8267 129.684 20.7105C128.915 21.5943 128.323 22.6254 127.88 23.8627C127.436 25.1 127.229 26.4257 127.229 27.8987C127.229 29.5484 127.436 30.9625 127.88 32.2293C128.323 33.4666 128.915 34.5272 129.684 35.3815C130.452 36.2064 131.339 36.8545 132.404 37.2964C133.468 37.7383 134.592 37.9445 135.834 37.9445C137.046 37.9445 138.022 37.7383 138.85 37.3259C139.677 36.9134 140.446 36.3537 141.156 35.6466V37.4732H147.247V18.3537H141.185V18.3831ZM140.387 31.5223C139.648 32.465 138.613 32.9363 137.282 32.9363C135.952 32.9363 134.917 32.465 134.178 31.5223C133.439 30.5795 133.084 29.3717 133.084 27.9282C133.084 26.4846 133.439 25.2768 134.178 24.3635C134.887 23.4208 135.922 22.9494 137.282 22.9494C138.524 22.9494 139.53 23.3619 140.328 24.2162C141.126 25.0705 141.54 26.3079 141.54 27.9282C141.511 29.3717 141.126 30.5795 140.387 31.5223Z" fill="#111111"></path>
  <path d="M165.076 18.0298C164.721 17.9709 164.248 17.9414 163.716 17.9414C162.563 17.9414 161.587 18.3244 160.789 19.0903C159.99 19.8563 159.281 20.7696 158.689 21.8301V18.3538H152.628V37.4733H158.689V28.1345C158.689 27.3097 158.808 26.5732 159.044 25.984C159.281 25.3948 159.606 24.9234 160.02 24.5699C160.404 24.1869 160.877 23.9218 161.38 23.745C161.883 23.5683 162.415 23.4799 162.947 23.4799C163.509 23.4799 164.011 23.5388 164.485 23.6566C164.958 23.7745 165.283 23.8628 165.401 23.9218V18.0887C165.283 18.0592 165.194 18.0592 165.076 18.0298Z" fill="#111111"></path>
  <path d="M180.658 26.9559L187.665 18.3831H180.687L175.158 25.9248V8.10156H169.126V37.5025H175.188V28.753L182.166 37.5025H189.262L180.658 26.9559Z" fill="#111111"></path>
  <path d="M124.007 23.7152C123.563 22.4779 122.972 21.4173 122.233 20.563C121.464 19.7087 120.577 19.09 119.512 18.6481C118.448 18.2062 117.295 18 116.083 18C114.87 18 113.865 18.2062 113.037 18.6481C112.18 19.09 111.411 19.6498 110.701 20.3568V18.4419H104.669V45.8691L110.731 41.2144V36.0884C111.44 36.707 112.239 37.2079 113.126 37.5614C113.421 37.6792 113.776 37.7971 114.131 37.856C114.722 37.9738 115.373 38.0622 116.053 38.0622C117.324 38.0622 118.477 37.8265 119.542 37.3257C119.838 37.2079 120.074 37.0606 120.34 36.8838C121.05 36.4419 121.7 35.9116 122.262 35.2635C123.031 34.3797 123.622 33.3486 124.066 32.1113C124.48 30.874 124.687 29.4894 124.687 28.0164C124.657 26.4255 124.421 24.982 124.007 23.7152ZM118.803 28.6645C118.714 29.784 118.359 30.7561 117.738 31.581C117.443 31.964 117.117 32.2586 116.763 32.4943C116.171 32.8772 115.462 33.054 114.634 33.054C113.421 33.054 112.387 32.6121 111.588 31.7578C111.293 31.4337 111.056 31.0802 110.879 30.6678L110.76 30.8445V30.3437C110.524 29.6661 110.406 28.8707 110.406 27.9869C110.406 27.162 110.524 26.455 110.76 25.7774C110.938 25.2766 111.174 24.8347 111.5 24.4223C112.239 23.4501 113.274 22.9787 114.604 22.9787C115.255 22.9787 115.846 23.0966 116.349 23.3028C116.881 23.5385 117.354 23.892 117.709 24.3633C118.448 25.3061 118.832 26.5139 118.832 27.9869C118.832 28.1637 118.832 28.4288 118.803 28.6645Z" fill="#111111"></path>
  <path d="M208.717 26.1608C207.919 25.1002 206.766 24.3048 205.199 23.804C206.293 23.2148 207.18 22.4194 207.86 21.4472C208.54 20.475 208.865 19.3261 208.865 18.0593C208.865 15.8498 208.067 14.1411 206.5 12.9038C204.903 11.6665 202.597 11.0479 199.522 11.0479H192.485V37.5028H200.232C202.006 37.5028 203.514 37.2966 204.726 36.8547C205.968 36.4128 206.943 35.8236 207.712 35.1166C208.481 34.4096 209.043 33.5552 209.368 32.642C209.693 31.6992 209.9 30.7271 209.9 29.7549C209.9 28.4292 209.516 27.2213 208.717 26.1608ZM195.944 13.9644H199.936C201.592 13.9644 202.893 14.3768 203.898 15.1722C204.903 15.9677 205.406 16.9693 205.406 18.1771C205.406 18.7369 205.317 19.2966 205.11 19.8564C204.903 20.4161 204.578 20.9169 204.134 21.3294C203.691 21.7418 203.129 22.0953 202.449 22.3605C201.769 22.6256 200.912 22.7434 199.965 22.7434H195.974V13.9644H195.944ZM204.933 33.2901C203.957 34.1739 202.567 34.5863 200.734 34.5863H195.944V25.4832H201.266C202.774 25.4832 203.987 25.8662 204.962 26.6321C205.909 27.3981 206.382 28.4587 206.382 29.8138C206.382 31.2573 205.909 32.4063 204.933 33.2901Z" fill="#111111"></path>
  <path d="M215.252 18.3828V37.5023H218.741V18.3828H215.252Z" fill="#111111"></path>
  <path d="M240 18.3828H224.152V21.3877H234.264L223.028 37.4728H239.379V34.4974H228.676L240 18.3828Z" fill="#111111"></path>
  <path d="M218.918 9.75098H215.045V14.2583H218.918V9.75098Z" fill="#111111"></path>
</svg>
